<svg xmlns="http://www.w3.org/2000/svg" viewBox="0 0 48 48" fill="none">
  <rect width="48" height="48" rx="12" fill="#0c2551"/>
  <g transform="translate(8, 8) scale(1.333)" stroke="#0aab72" stroke-width="1.5" stroke-linecap="round" stroke-linejoin="round" fill="none">
    <path d="M12 10a5 5 0 0 1 5 5v3.5a3.5 3.5 0 0 1-7 0V15"/>
    <path d="M17 14.5a8.5 8.5 0 0 1-8.5 8.5"/>
    <path d="M12 10c-2.8 0-5 2.2-5 5v2a9 9 0 0 0 9 9"/>
    <path d="M12 10c-5 0-9 4-9 9v.5"/>
    <path d="M12 10c5 0 9 4 9 9v.5"/>
  </g>
</svg>